<?xml version="1.0" encoding="utf-8"?>
<!-- Generator: Adobe Illustrator 16.0.0, SVG Export Plug-In . SVG Version: 6.00 Build 0)  -->
<!DOCTYPE svg PUBLIC "-//W3C//DTD SVG 1.1//EN" "http://www.w3.org/Graphics/SVG/1.1/DTD/svg11.dtd">
<svg version="1.1" id="Layer_5" xmlns="http://www.w3.org/2000/svg" xmlns:xlink="http://www.w3.org/1999/xlink" x="0px" y="0px"
	 width="612px" height="792px" viewBox="0 0 612 792" enable-background="new 0 0 612 792" xml:space="preserve">
<g>
	<g>
		<path fill="#FFFFFF" d="M274.789,573.453v-5.803h1.277v5.803H274.789z"/>
	</g>
	<g>
		<path fill="#FFFFFF" d="M282.417,573.453l-2.81-3.688v3.688h-1.261v-5.803h1.178l2.719,3.573v-3.573h1.26v5.803H282.417z"/>
	</g>
	<g>
		<path fill="#FFFFFF" d="M288.354,568.828v4.625h-1.277v-4.625h-1.766v-1.178h4.809v1.178H288.354z"/>
	</g>
	<g>
		<path fill="#FFFFFF" d="M291.929,573.453v-5.803h4.377v1.136h-3.108v1.178h2.735v1.136h-2.735v1.218h3.149v1.136H291.929z"/>
	</g>
	<g>
		<path fill="#FFFFFF" d="M301.836,573.453l-1.243-1.856h-1.003v1.856h-1.277v-5.803h2.653c1.367,0,2.188,0.722,2.188,1.915v0.017
			c0,0.937-0.506,1.525-1.243,1.799l1.417,2.072H301.836z M301.861,569.632c0-0.547-0.382-0.829-1.004-0.829h-1.268v1.666h1.293
			c0.621,0,0.979-0.331,0.979-0.82V569.632z"/>
	</g>
	<g>
		<path fill="#FFFFFF" d="M309.207,573.453l-2.811-3.688v3.688h-1.26v-5.803h1.177l2.72,3.573v-3.573h1.26v5.803H309.207z"/>
	</g>
	<g>
		<path fill="#FFFFFF" d="M316.836,573.453l-0.531-1.302h-2.453l-0.531,1.302h-1.302l2.487-5.845h1.178l2.486,5.845H316.836z
			 M315.078,569.143l-0.771,1.882h1.542L315.078,569.143z"/>
	</g>
	<g>
		<path fill="#FFFFFF" d="M322.523,568.828v4.625h-1.276v-4.625h-1.766v-1.178h4.809v1.178H322.523z"/>
	</g>
	<g>
		<path fill="#FFFFFF" d="M326.156,573.453v-5.803h1.276v5.803H326.156z"/>
	</g>
	<g>
		<path fill="#FFFFFF" d="M332.532,573.553c-1.791,0-3.076-1.334-3.076-2.984v-0.017c0-1.649,1.302-3.001,3.092-3.001
			c1.791,0,3.076,1.335,3.076,2.984v0.017C335.624,572.201,334.322,573.553,332.532,573.553z M334.289,570.552
			c0-0.995-0.729-1.824-1.757-1.824c-1.028,0-1.741,0.813-1.741,1.808v0.017c0,0.995,0.729,1.824,1.757,1.824
			c1.028,0,1.741-0.812,1.741-1.808V570.552z"/>
	</g>
	<g>
		<path fill="#FFFFFF" d="M341.661,573.453l-2.811-3.688v3.688h-1.261v-5.803h1.178l2.719,3.573v-3.573h1.261v5.803H341.661z"/>
	</g>
	<g>
		<path fill="#FFFFFF" d="M349.289,573.453l-0.531-1.302h-2.453l-0.53,1.302h-1.302l2.486-5.845h1.178l2.487,5.845H349.289z
			 M347.531,569.143l-0.771,1.882h1.542L347.531,569.143z"/>
	</g>
	<g>
		<path fill="#FFFFFF" d="M352.349,573.453v-5.803h1.277v4.643h2.893v1.16H352.349z"/>
	</g>
</g>
<g>
	<path fill="#FFFFFF" d="M308.428,538.322v15.383c0,2.763-1.229,3.956-3.207,3.956c-1.57,0-2.839-0.79-4.119-2.13
		c-0.581,1.638-1.52,3.105-2.724,4.309c1.606,1.531,3.842,2.699,6.979,2.699c5.048,0,8.459-2.798,8.459-8.596v-15.621H308.428z"/>
</g>
<g>
	<path fill="#FFFFFF" d="M332.402,549.715c1.706-0.955,3.138-2.456,3.138-5.15v-0.068c0-3.752-3.002-6.174-7.878-6.174h-11.086
		v23.876h11.358c5.389,0,8.937-2.184,8.937-6.549v-0.068C336.871,552.375,335.165,550.772,332.402,549.715z M321.692,542.927h5.185
		c2.218,0,3.445,0.887,3.445,2.456v0.068c0,1.773-1.467,2.523-3.786,2.523h-4.844V542.927z M331.652,555.001
		c0,1.773-1.398,2.592-3.718,2.592h-6.242v-5.252h6.072c2.694,0,3.888,0.989,3.888,2.592V555.001z"/>
</g>
<g>
	<path fill="#FFFFFF" d="M349.181,547.907c-4.128-1.058-5.15-1.569-5.15-3.139V544.7c0-1.159,1.057-2.08,3.068-2.08
		c2.013,0,4.094,0.887,6.208,2.354l2.729-3.957c-2.421-1.943-5.388-3.035-8.868-3.035c-4.876,0-8.356,2.865-8.356,7.196v0.068
		c0,4.741,3.105,6.071,7.913,7.3c3.991,1.022,4.81,1.705,4.81,3.035v0.068c0,1.398-1.295,2.251-3.444,2.251
		c-2.729,0-4.981-1.126-7.129-2.899l-3.104,3.718c2.864,2.559,6.514,3.82,10.13,3.82c5.15,0,8.766-2.66,8.766-7.401v-0.068
		C356.752,550.908,354.022,549.169,349.181,547.907z"/>
</g>
<g>
	<path fill="#FFFFFF" d="M284.648,562.282c-6.562,0-11.9-5.338-11.9-11.899s5.339-11.9,11.9-11.9c6.562,0,11.9,5.339,11.9,11.9
		S291.211,562.282,284.648,562.282z M284.648,541.188c-5.069,0-9.194,4.125-9.194,9.195c0,5.069,4.125,9.194,9.194,9.194
		c5.07,0,9.195-4.125,9.195-9.194C293.844,545.312,289.719,541.188,284.648,541.188z"/>
</g>
<g>
	<path fill="#FFFFFF" d="M284.648,562.282c-4.758,0-8.639-3.871-8.649-8.629c-0.006-2.311,0.889-4.485,2.519-6.123
		c1.629-1.638,3.8-2.543,6.11-2.548h0.022c4.757,0,8.637,3.871,8.648,8.63c0.006,2.31-0.888,4.484-2.519,6.122
		c-1.63,1.638-3.8,2.543-6.11,2.548H284.648z M284.65,547.688c-1.604,0.004-3.096,0.626-4.216,1.751
		c-1.119,1.126-1.734,2.62-1.729,4.208c0.007,3.271,2.674,5.931,5.943,5.931h0.015c1.588-0.004,3.08-0.626,4.2-1.751
		c1.12-1.126,1.734-2.62,1.73-4.207C290.585,550.349,287.919,547.688,284.65,547.688z"/>
</g>
<g>
	<path fill="#FFFFFF" d="M284.647,562.282c-3.04,0-5.521-2.474-5.528-5.516c-0.007-3.048,2.467-5.534,5.516-5.543
		c3.056,0,5.537,2.475,5.543,5.517c0.004,1.477-0.567,2.866-1.609,3.913c-1.041,1.047-2.429,1.626-3.905,1.629H284.647z
		 M284.647,553.93c-1.562,0.004-2.826,1.274-2.822,2.83c0.004,1.554,1.271,2.817,2.822,2.817v1.353l0.008-1.353
		c0.755-0.002,1.464-0.297,1.995-0.832c0.532-0.534,0.824-1.244,0.822-1.998C287.469,555.193,286.202,553.93,284.647,553.93z"/>
</g>
</svg>
