<?xml version="1.0" encoding="utf-8"?>
<!-- Generator: Adobe Illustrator 16.0.0, SVG Export Plug-In . SVG Version: 6.00 Build 0)  -->
<!DOCTYPE svg PUBLIC "-//W3C//DTD SVG 1.1//EN" "http://www.w3.org/Graphics/SVG/1.1/DTD/svg11.dtd">
<svg version="1.1" id="Layer_5" xmlns="http://www.w3.org/2000/svg" xmlns:xlink="http://www.w3.org/1999/xlink" x="0px" y="0px"
	 width="612px" height="792px" viewBox="0 0 612 792" enable-background="new 0 0 612 792" xml:space="preserve">
<path fill="#FFE1A4" d="M260.973,318.374c0.501-2.471,0.766-5.029,0.766-7.648c0-27.544-37.575-39.127-20.06-65
	c1.06-1.566-60.455,22.201-56.499,65c0.261,2.819,0.766,5.567,1.484,8.217c11.395,8.969,23.99,10.844,37.33,10.844
	C236.733,329.786,248.106,326.661,260.973,318.374z"/>
<path fill="#CE2030" d="M223.459,349.005c18.521,0,33.969-13.155,37.513-30.631l-74.308,0.568
	C191.31,336.079,205.149,349.005,223.459,349.005z"/>
<path fill="#CE2030" d="M226.699,272.718l-2.982-6.963l-3.124,7.502l-1.993,30.45c-0.859-2.02-2.599-4.726-6.07-6.601
	c0,0-0.445-1.507-1.617-2.592l-0.117-3.101c0,0,0.361-0.381,0.169-0.861c0,0,1.219-0.398-1.454-2.288l-0.039-1.51
	c0,0-0.046-0.388-0.588-0.876l-0.019-3.907c0,0-0.266,0.01-0.391,0.473l-0.147,3.416c0,0-0.63,0.541-0.689,0.962l0.002,1.513
	c0,0-2.385,1.746-1.489,2.369c0,0-0.14,0.644,0.275,0.883l-0.213,2.552c-0.444,0.387-1.27,1.256-1.442,2.448
	c0,0-6.429,2.52-7.681,9.574c0,0-1.272,1.182-1.87,2.678c0,0-1.976,1.321-0.575,3.451l-0.115,2.442
	c-1.813,0.488-2.495,2.211-2.495,2.211c-1.619,1.365-0.017,3.586-0.017,3.586c0.021-0.009-0.014,0.931-0.065,2.147h30.181
	c2.443,0,1.242,0,1.242,0h6.4L226.699,272.718z"/>
<path fill="#CE2030" d="M236.53,292.18c-0.058-0.566,0.35-1.073,0.915-1.132c0.565-0.063,1.071,0.348,1.132,0.912
	c0.037,0.351-0.112,0.667-0.362,0.875c1.005,0.251,3.137,1.128,5.573,4.217c0,0,2.09,4.103,7.415,1.741c0,0-0.063,7.073-1.89,9.663
	c0,0-4.921,1.584-8.331-3.056c0,0-2.541-3.271-4.522-2.915l-3.744,20.149l-1.236,0.7l5.539-30.405
	C236.761,292.768,236.567,292.507,236.53,292.18z"/>
<path fill="#FFFFFF" d="M217.036,319.043h8.372l-6.744,5.059l2.617,8.024l-6.717-4.942l-6.717,4.942l2.648-8.024l-6.805-5.059h8.345
	l2.529-7.82L217.036,319.043z"/>
<path fill="none" stroke="#FFFFFF" stroke-width="1.5" stroke-miterlimit="10" d="M259.28,308.86
	c1.564,22.576-15.47,42.144-38.045,43.708c-22.576,1.563-40.073-15.708-43.708-38.045c-7.391-45.41,52.582-76.231,51.565-74.48
	C212.302,268.967,257.242,279.447,259.28,308.86z"/>
</svg>
